<svg width="177" height="52" viewBox="0 0 177 52" fill="none" xmlns="http://www.w3.org/2000/svg">
<path d="M7.79073 23.3826L10.4447 22.0738L14.6397 15.7919L15.9239 15.2685L17.2937 21.6376L15.4958 21.8993L14.126 19.2819L13.0987 23.3826H17.6361L22.3448 24.604L24.2283 23.3826L27.396 26.698L28.7658 20.5906L30.9917 22.8591L32.3615 20.9396L34.5874 20.3289L37.8407 17.2752L38.3543 15.7919L41.0083 16.2282L42.1213 17.7114L40.1522 21.8993L45.0321 19.3691V18.1476L46.9156 17.7114L48.9703 19.8054L51.025 17.2752V15.5302L54.3639 13.1745L55.7337 11.1678H57.874L61.6409 3.40268L64.8942 0L66.0927 1.91946L64.2093 4.36242L64.8942 5.93289L66.692 6.28188L68.1474 12.7383V18.1476L70.7158 21.7248L72 26.698L67.5482 23.8188L65.5791 15.5302L64.3805 15.7919L64.2093 21.3758L60.956 26.698L60.0143 34.8121L62.2402 35.3356L63.1819 34.2013L65.3222 36.6443L66.9489 43.9732L66.7776 48.6846H64.723L63.9524 42.0537L62.497 44.0604L59.3294 43.3624L56.761 41.1812L53.8502 42.2282L54.0214 46.9396L51.7099 47.5503L48.2854 50.1678L44.176 49.6443L42.5494 48.6846L39.981 49.1208L40.8371 50.1678L38.7824 51.3893L37.1558 50.604L34.0737 52L29.365 49.6443L27.5672 45.4564L26.0262 45.6309L24.2283 44.1477L24.1427 43.0134L18.4067 42.4027L17.4649 45.5436L13.8692 43.8859L12.0713 40.8322H8.21879L7.79073 45.7181L5.5648 46.4161L4.45184 50.8658L3.59572 50.0805L0 40.745L4.28062 38.651L3.59572 34.5503L2.91082 30.3624L4.79429 27.6577L4.19501 26L6.76338 23.2081L7.79073 23.3826ZM64.723 33.6779L68.6611 39.6107L69.9453 39.0872L68.3187 36.6443L64.723 32.8054V33.6779ZM24.4851 21.6376V19.8926L27.4816 17.7114L30.0499 16.4027H27.0535L24.3995 17.9732L22.7729 19.4564V21.6376H24.4851Z" fill="white"/>
<path d="M90.125 41H94.8636V35.2386H96.5L99.5682 41H104.716L101.17 34.4886C103.028 33.5938 104.136 31.8977 104.136 29.4773C104.136 25.7614 101.537 23.5455 97.6591 23.5455H90.125V41ZM94.8636 31.5568V27.3295H96.5341C98.196 27.3295 99.1932 27.9773 99.1932 29.4773C99.1932 30.9688 98.196 31.5568 96.5341 31.5568H94.8636ZM114.713 35.2727C114.722 36.5682 113.972 37.3523 112.804 37.3523C111.619 37.3523 110.938 36.5682 110.929 35.2727V27.9091H106.224V36.2614C106.233 39.125 108.04 41.1705 110.793 41.1705C112.744 41.1705 114.244 40.1818 114.815 38.5114H114.952V41H119.418V27.9091H114.713V35.2727ZM133.776 32.1705C133.657 29.4006 131.356 27.7386 127.572 27.7386C123.83 27.7386 121.521 29.2727 121.538 32C121.521 34.0625 122.859 35.3835 125.526 35.8523L127.844 36.2614C128.867 36.4489 129.327 36.7216 129.344 37.2159C129.327 37.7614 128.705 38.0682 127.844 38.0682C126.779 38.0682 126.029 37.608 125.901 36.7727H121.231C121.487 39.4574 123.805 41.2386 127.81 41.2386C131.433 41.2386 134.1 39.4744 134.117 36.6705C134.1 34.7358 132.805 33.6108 130.129 33.125L127.469 32.6477C126.472 32.4688 126.191 32.1108 126.208 31.7273C126.191 31.1818 126.864 30.875 127.674 30.875C128.603 30.875 129.379 31.3693 129.447 32.1705H133.776ZM147.886 32.1705C147.766 29.4006 145.465 27.7386 141.681 27.7386C137.94 27.7386 135.63 29.2727 135.647 32C135.63 34.0625 136.968 35.3835 139.636 35.8523L141.954 36.2614C142.977 36.4489 143.437 36.7216 143.454 37.2159C143.437 37.7614 142.815 38.0682 141.954 38.0682C140.888 38.0682 140.138 37.608 140.011 36.7727H135.34C135.596 39.4574 137.914 41.2386 141.92 41.2386C145.542 41.2386 148.21 39.4744 148.227 36.6705C148.21 34.7358 146.914 33.6108 144.238 33.125L141.579 32.6477C140.582 32.4688 140.3 32.1108 140.317 31.7273C140.3 31.1818 140.974 30.875 141.783 30.875C142.712 30.875 143.488 31.3693 143.556 32.1705H147.886ZM150.029 41H154.734V27.9091H150.029V41ZM152.381 26.5455C153.66 26.5455 154.7 25.5824 154.7 24.3977C154.7 23.2131 153.66 22.25 152.381 22.25C151.103 22.25 150.063 23.2131 150.063 24.3977C150.063 25.5824 151.103 26.5455 152.381 26.5455ZM160.778 41.2045C162.483 41.2045 163.77 40.625 164.562 39.1591H164.665V41H169.062V32.0341C169.062 29.6136 166.77 27.7386 163.028 27.7386C159.116 27.7386 157.19 29.7841 157.028 32.1705H161.358C161.469 31.3608 162.065 30.9773 162.96 30.9773C163.778 30.9773 164.358 31.3523 164.358 32.0341V32.0682C164.358 32.8267 163.523 33.0653 161.324 33.2273C158.622 33.4233 156.517 34.5142 156.517 37.3864C156.517 39.9943 158.273 41.2045 160.778 41.2045ZM162.312 38.2386C161.511 38.2386 160.949 37.8466 160.949 37.1136C160.949 36.4403 161.426 35.9205 162.517 35.75C163.267 35.6307 163.898 35.4773 164.392 35.2727V36.3636C164.392 37.5568 163.378 38.2386 162.312 38.2386Z" fill="white"/>
</svg>
